<?xml version="1.0" encoding="utf-8"?>
<!-- Generator: Adobe Illustrator 26.0.1, SVG Export Plug-In . SVG Version: 6.00 Build 0)  -->
<svg version="1.1" id="Layer_1" xmlns="http://www.w3.org/2000/svg" xmlns:xlink="http://www.w3.org/1999/xlink" x="0px" y="0px"
	 viewBox="0 0 90.52 46" style="enable-background:new 0 0 90.52 46;" xml:space="preserve">
<style type="text/css">
	.st0{fill-rule:evenodd;clip-rule:evenodd;fill:#114A8A;}
	.st1{fill-rule:evenodd;clip-rule:evenodd;fill:#192858;stroke:#FFFFFF;stroke-width:0.4;stroke-miterlimit:10;}
	.st2{fill:none;stroke:#FFFFFF;stroke-width:0.5;stroke-miterlimit:2.613;}
	.st3{fill-rule:evenodd;clip-rule:evenodd;fill:#FFFFFF;}
	.st4{fill-rule:evenodd;clip-rule:evenodd;fill:#6D6E70;}
</style>
<g>
	<path class="st0" d="M13.81,0h62.91c7.59,0,13.81,6.21,13.81,13.81v10.67c0,7.59-6.21,13.81-13.81,13.81H13.81
		C6.21,38.29,0,32.07,0,24.48V13.81C0,6.21,6.21,0,13.81,0"/>
	<path class="st1" d="M8.13,7.9h4.36c0.58,0,1.05,0.47,1.05,1.05v20.39c0,0.58-0.47,1.05-1.05,1.05H8.13
		c-0.58,0-1.05-0.47-1.05-1.05V8.95C7.08,8.37,7.56,7.9,8.13,7.9z"/>
	<path class="st2" d="M8.13,7.9h4.36c0.58,0,1.05,0.47,1.05,1.05v20.39c0,0.58-0.47,1.05-1.05,1.05H8.13
		c-0.58,0-1.05-0.47-1.05-1.05V8.95C7.08,8.37,7.56,7.9,8.13,7.9z"/>
	<path class="st1" d="M25.74,13.3h-6.17v12.03h6.17c2.5,0,4.55-2.05,4.55-4.55v-2.92C30.29,15.35,28.24,13.3,25.74,13.3z M29.64,7.9
		H14.54c-0.55,0-0.99,0.45-0.99,0.99v20.5c0,0.55,0.45,0.99,0.99,0.99h15.11c3.64,0,6.62-2.98,6.62-6.62v-9.25
		C36.26,10.88,33.28,7.9,29.64,7.9z"/>
	<path class="st2" d="M25.74,13.3h-6.17v12.03h6.17c2.5,0,4.55-2.05,4.55-4.55v-2.92C30.29,15.35,28.24,13.3,25.74,13.3z M29.64,7.9
		H14.54c-0.55,0-0.99,0.45-0.99,0.99v20.5c0,0.55,0.45,0.99,0.99,0.99h15.11c3.64,0,6.62-2.98,6.62-6.62v-9.25
		C36.26,10.88,33.28,7.9,29.64,7.9z"/>
	<path class="st1" d="M83.44,26.21v3.37c0,0.44-0.36,0.81-0.81,0.81H42.88c-3.68-0.02-6.3-2.91-6.6-5.91
		c-0.01-0.05-0.01-0.11-0.01-0.16l0-9.88c0.08-3.65,2.91-6.54,6.62-6.54h9.37c0.44,0,0.81,0.36,0.81,0.81v3.37
		c0,0.44-0.36,0.81-0.81,0.81h-5.49c-3.99,0-4.65,3.44-4.65,5.89c0,1.9-0.53,6.63,3.09,6.63h37.43
		C83.07,25.41,83.44,25.77,83.44,26.21z"/>
	<path class="st2" d="M83.44,26.21v3.37c0,0.44-0.36,0.81-0.81,0.81H42.88c-3.68-0.02-6.3-2.91-6.6-5.91
		c-0.01-0.05-0.01-0.11-0.01-0.16l0-9.88c0.08-3.65,2.91-6.54,6.62-6.54h9.37c0.44,0,0.81,0.36,0.81,0.81v3.37
		c0,0.44-0.36,0.81-0.81,0.81h-5.49c-3.99,0-4.65,3.44-4.65,5.89c0,1.9-0.53,6.63,3.09,6.63h37.43
		C83.07,25.41,83.44,25.77,83.44,26.21z"/>
	<path class="st3" d="M79.51,28.35l0.51-0.05c0.03,0.17,0.09,0.29,0.18,0.37c0.09,0.08,0.22,0.12,0.38,0.12
		c0.17,0,0.29-0.04,0.38-0.11c0.08-0.07,0.13-0.15,0.13-0.25c0-0.06-0.02-0.11-0.05-0.16c-0.04-0.04-0.1-0.08-0.19-0.11
		c-0.06-0.02-0.2-0.06-0.41-0.11c-0.28-0.07-0.47-0.15-0.58-0.26c-0.16-0.14-0.24-0.32-0.24-0.52c0-0.13,0.04-0.26,0.11-0.37
		c0.07-0.11,0.18-0.2,0.32-0.26s0.31-0.09,0.51-0.09c0.32,0,0.57,0.07,0.73,0.21c0.16,0.14,0.25,0.33,0.26,0.57l-0.52,0.02
		c-0.02-0.13-0.07-0.23-0.14-0.29c-0.07-0.06-0.18-0.09-0.33-0.09c-0.15,0-0.27,0.03-0.35,0.09c-0.05,0.04-0.08,0.09-0.08,0.16
		c0,0.06,0.03,0.11,0.08,0.16c0.07,0.06,0.22,0.11,0.48,0.17c0.25,0.06,0.44,0.12,0.56,0.19c0.12,0.06,0.22,0.15,0.28,0.26
		c0.07,0.11,0.1,0.25,0.1,0.41c0,0.15-0.04,0.29-0.12,0.42c-0.08,0.13-0.2,0.22-0.35,0.29c-0.15,0.06-0.34,0.09-0.56,0.09
		c-0.33,0-0.58-0.07-0.75-0.23C79.65,28.86,79.55,28.64,79.51,28.35 M77.25,29.19v-2.58h1.91v0.44h-1.39v0.57h1.29v0.44h-1.29v0.7
		h1.44v0.44H77.25z M76.23,29.19v-2.58h0.52v2.58H76.23z M74.64,28.24V27.8h1.12v1.03c-0.11,0.11-0.27,0.2-0.47,0.28
		c-0.21,0.08-0.42,0.12-0.63,0.12c-0.27,0-0.5-0.06-0.7-0.17c-0.2-0.11-0.35-0.28-0.45-0.49c-0.1-0.21-0.15-0.44-0.15-0.69
		c0-0.27,0.06-0.51,0.17-0.72c0.11-0.21,0.28-0.37,0.49-0.48c0.17-0.09,0.37-0.13,0.62-0.13c0.32,0,0.57,0.07,0.75,0.2
		c0.18,0.13,0.3,0.32,0.35,0.56l-0.52,0.1c-0.04-0.13-0.1-0.23-0.2-0.3c-0.1-0.07-0.22-0.11-0.37-0.11c-0.23,0-0.41,0.07-0.54,0.22
		c-0.13,0.14-0.2,0.36-0.2,0.64c0,0.31,0.07,0.54,0.2,0.69c0.14,0.15,0.31,0.23,0.53,0.23c0.11,0,0.22-0.02,0.33-0.06
		c0.11-0.04,0.2-0.09,0.28-0.16v-0.33H74.64z M71.07,27.89c0,0.29,0.07,0.51,0.2,0.67c0.13,0.15,0.31,0.23,0.51,0.23
		c0.21,0,0.38-0.08,0.51-0.22c0.13-0.15,0.2-0.37,0.2-0.67c0-0.3-0.06-0.52-0.2-0.66c-0.13-0.15-0.3-0.22-0.52-0.22
		c-0.21,0-0.39,0.07-0.52,0.22C71.14,27.38,71.07,27.6,71.07,27.89z M70.54,27.91c0-0.26,0.04-0.48,0.12-0.66
		c0.06-0.13,0.14-0.25,0.24-0.35c0.1-0.1,0.21-0.18,0.33-0.23c0.16-0.07,0.35-0.1,0.56-0.1c0.38,0,0.68,0.12,0.91,0.35
		c0.23,0.24,0.34,0.57,0.34,0.99c0,0.42-0.11,0.74-0.34,0.98c-0.23,0.24-0.53,0.35-0.91,0.35c-0.38,0-0.69-0.12-0.92-0.35
		C70.65,28.65,70.54,28.32,70.54,27.91z M68.46,29.19v-2.56h0.52v2.12h1.29v0.44H68.46z M66.07,27.89c0,0.29,0.07,0.51,0.2,0.67
		c0.13,0.15,0.31,0.23,0.51,0.23c0.21,0,0.38-0.08,0.51-0.22c0.13-0.15,0.2-0.37,0.2-0.67c0-0.3-0.06-0.52-0.2-0.66
		c-0.13-0.15-0.3-0.22-0.52-0.22c-0.21,0-0.39,0.07-0.52,0.22C66.14,27.38,66.07,27.6,66.07,27.89z M65.54,27.91
		c0-0.26,0.04-0.48,0.12-0.66c0.06-0.13,0.14-0.25,0.24-0.35c0.1-0.1,0.21-0.18,0.33-0.23c0.16-0.07,0.35-0.1,0.56-0.1
		c0.38,0,0.68,0.12,0.91,0.35c0.23,0.24,0.34,0.57,0.34,0.99c0,0.42-0.11,0.74-0.34,0.98c-0.23,0.24-0.53,0.35-0.91,0.35
		c-0.38,0-0.69-0.12-0.92-0.35C65.65,28.65,65.54,28.32,65.54,27.91z M63.04,29.19v-2.58h0.51l1.06,1.73v-1.73h0.48v2.58h-0.52
		l-1.05-1.69v1.69H63.04z M60.44,29.19v-2.58h0.52v1.02h1.02v-1.02h0.52v2.58h-0.52v-1.13h-1.02v1.13H60.44z M59.49,28.23l0.5,0.15
		c-0.08,0.28-0.21,0.49-0.39,0.63c-0.18,0.14-0.41,0.21-0.68,0.21c-0.34,0-0.62-0.12-0.85-0.35c-0.22-0.23-0.33-0.55-0.33-0.96
		c0-0.43,0.11-0.76,0.33-1c0.22-0.24,0.51-0.36,0.87-0.36c0.32,0,0.57,0.09,0.77,0.28c0.12,0.11,0.21,0.27,0.26,0.48l-0.51,0.12
		c-0.03-0.13-0.09-0.24-0.19-0.32c-0.1-0.08-0.21-0.12-0.35-0.12c-0.19,0-0.35,0.07-0.47,0.21c-0.12,0.14-0.18,0.36-0.18,0.67
		c0,0.32,0.06,0.56,0.18,0.7c0.12,0.14,0.27,0.21,0.46,0.21c0.14,0,0.26-0.04,0.36-0.13C59.38,28.56,59.45,28.42,59.49,28.23z
		 M55.44,29.19v-2.58h1.91v0.44h-1.39v0.57h1.29v0.44h-1.29v0.7h1.44v0.44H55.44z M53.82,29.19v-2.14h-0.76v-0.44h2.05v0.44h-0.76
		v2.14H53.82z"/>
	<path class="st4" d="M88.87,41.43l-0.17,0.61c-0.22-0.07-0.45-0.1-0.7-0.1c-0.32,0-0.48,0.1-0.48,0.29c0,0.13,0.15,0.25,0.45,0.37
		c0.53,0.22,0.8,0.51,0.8,0.88c0,0.67-0.47,1-1.41,1c-0.32,0-0.59-0.03-0.82-0.09l0.16-0.61c0.23,0.08,0.47,0.12,0.71,0.12
		c0.44,0,0.66-0.1,0.66-0.3c0-0.14-0.15-0.28-0.45-0.41c-0.25-0.11-0.43-0.22-0.55-0.32c-0.17-0.15-0.25-0.33-0.25-0.54
		c0-0.33,0.12-0.57,0.36-0.73c0.24-0.16,0.53-0.24,0.88-0.24C88.4,41.37,88.67,41.39,88.87,41.43 M85.73,42.18
		c0-0.2-0.15-0.3-0.46-0.3c-0.17,0-0.34,0.06-0.49,0.19c-0.16,0.13-0.26,0.31-0.3,0.55C85.31,42.61,85.73,42.46,85.73,42.18z
		 M86.41,42.12c0,0.61-0.66,0.93-1.97,0.95c0,0.27,0.05,0.47,0.15,0.61c0.1,0.13,0.28,0.2,0.53,0.2c0.33,0,0.68-0.11,1.06-0.32
		l-0.1,0.61c-0.31,0.21-0.69,0.32-1.16,0.32c-0.42,0-0.73-0.13-0.93-0.38c-0.2-0.25-0.3-0.58-0.3-1c0-0.53,0.17-0.96,0.5-1.29
		c0.34-0.32,0.73-0.48,1.19-0.48c0.32,0,0.57,0.07,0.75,0.2C86.32,41.68,86.41,41.87,86.41,42.12z M83.41,41.45l-0.16,0.63
		c-0.17-0.06-0.37-0.09-0.59-0.09c-0.27,0-0.48,0.1-0.63,0.31c-0.15,0.21-0.23,0.45-0.23,0.72c0,0.57,0.22,0.86,0.65,0.86
		c0.25,0,0.52-0.09,0.82-0.27l-0.1,0.61c-0.25,0.18-0.55,0.27-0.91,0.27c-0.42,0-0.73-0.13-0.94-0.4c-0.2-0.27-0.3-0.59-0.3-0.99
		c0-0.47,0.16-0.88,0.49-1.21c0.32-0.34,0.75-0.5,1.27-0.5C83.02,41.39,83.23,41.41,83.41,41.45z M80.86,40.49
		c0,0.16-0.06,0.3-0.17,0.41c-0.11,0.11-0.25,0.17-0.41,0.17c-0.12,0-0.22-0.04-0.29-0.12c-0.07-0.08-0.1-0.17-0.1-0.29
		c0-0.16,0.06-0.3,0.17-0.41c0.11-0.11,0.25-0.17,0.41-0.17C80.72,40.1,80.86,40.23,80.86,40.49z M80.62,41.42
		c0,0.06-0.02,0.27-0.07,0.63c-0.05,0.37-0.09,0.66-0.11,0.89c-0.05,0.43-0.08,0.91-0.11,1.46l-0.78,0.03
		c0.04-0.27,0.11-0.76,0.19-1.49c0.04-0.39,0.06-0.75,0.06-1.09c0-0.14,0-0.25-0.01-0.34L80.62,41.42z M79.33,41.45
		c0,0.17-0.22,0.68-0.67,1.52c-0.45,0.84-0.68,1.32-0.69,1.44h-0.8c0-0.3-0.1-0.8-0.31-1.5c-0.21-0.71-0.31-1.18-0.31-1.42
		l0.84-0.03c0,0.2,0.06,0.57,0.17,1.11c0.12,0.54,0.17,0.9,0.17,1.08h0.04c0.01-0.08,0.14-0.41,0.39-0.99
		c0.25-0.58,0.38-0.97,0.38-1.17L79.33,41.45z M76.41,41.45l-0.24,0.72c-0.14-0.04-0.28-0.06-0.43-0.06c-0.37,0-0.58,0.2-0.62,0.61
		c-0.07,0.62-0.12,1.18-0.15,1.68l-0.77,0.03c0.14-1.06,0.22-1.78,0.22-2.16c0-0.22-0.02-0.48-0.05-0.79l0.76-0.08
		c0.01,0.14,0.02,0.27,0.02,0.41h0.05c0.21-0.3,0.46-0.44,0.76-0.44C76.09,41.38,76.24,41.4,76.41,41.45z M73.17,42.18
		c0-0.2-0.15-0.3-0.46-0.3c-0.17,0-0.34,0.06-0.49,0.19c-0.16,0.13-0.26,0.31-0.3,0.55C72.75,42.61,73.17,42.46,73.17,42.18z
		 M73.86,42.12c0,0.61-0.66,0.93-1.97,0.95c0,0.27,0.05,0.47,0.15,0.61c0.1,0.13,0.28,0.2,0.53,0.2c0.33,0,0.68-0.11,1.06-0.32
		l-0.1,0.61c-0.31,0.21-0.69,0.32-1.16,0.32c-0.42,0-0.73-0.13-0.93-0.38c-0.2-0.25-0.3-0.58-0.3-1c0-0.53,0.17-0.96,0.5-1.29
		c0.33-0.32,0.73-0.48,1.19-0.48c0.32,0,0.57,0.07,0.75,0.2C73.77,41.68,73.86,41.87,73.86,42.12z M70.74,40.44l-0.18,0.68
		c-0.25-0.1-0.53-0.15-0.83-0.15c-0.49,0-0.74,0.15-0.74,0.45c0,0.12,0.05,0.22,0.16,0.3c0.09,0.08,0.28,0.18,0.55,0.3
		c0.63,0.28,0.95,0.68,0.95,1.2c0,0.86-0.59,1.29-1.78,1.29c-0.37,0-0.71-0.05-1.03-0.14l0.22-0.69c0.3,0.12,0.59,0.17,0.87,0.17
		c0.27,0,0.46-0.02,0.59-0.06c0.23-0.07,0.34-0.21,0.34-0.42c0-0.14-0.06-0.26-0.18-0.36c-0.11-0.1-0.31-0.21-0.61-0.35
		c-0.57-0.27-0.85-0.64-0.85-1.12c0-0.43,0.15-0.73,0.44-0.92c0.29-0.19,0.67-0.28,1.13-0.28C70.17,40.34,70.48,40.37,70.74,40.44z
		 M66.4,41.45c0,0.29-0.2,0.81-0.61,1.58c-0.41,0.76-0.64,1.23-0.7,1.4c-0.18,0.51-0.39,0.86-0.63,1.05
		c-0.24,0.19-0.57,0.29-0.98,0.29v-0.59c0.26,0,0.48-0.08,0.67-0.25c0.19-0.17,0.28-0.37,0.28-0.63c0-0.28-0.12-0.77-0.37-1.46
		c-0.25-0.69-0.37-1.15-0.37-1.36l0.89-0.03c0,0.28,0.06,0.68,0.17,1.18c0.12,0.51,0.17,0.85,0.17,1.04h0.05
		c0.01-0.07,0.12-0.38,0.34-0.92c0.22-0.54,0.32-0.96,0.32-1.26L66.4,41.45z M62.26,42.33c0-0.16-0.05-0.28-0.15-0.36
		c-0.1-0.08-0.22-0.12-0.34-0.12c-0.16,0-0.3,0.06-0.42,0.17c-0.12,0.11-0.18,0.27-0.18,0.45c0,0.16,0.05,0.28,0.15,0.36
		c0.1,0.08,0.22,0.12,0.35,0.12c0.16,0,0.3-0.06,0.42-0.17C62.2,42.67,62.26,42.52,62.26,42.33z M62.34,44.82
		c0-0.12-0.04-0.2-0.13-0.25c-0.09-0.05-0.29-0.07-0.6-0.07c-0.2,0-0.39-0.01-0.57-0.03c-0.22,0.13-0.33,0.32-0.33,0.57
		c0,0.34,0.2,0.51,0.59,0.51c0.3,0,0.55-0.06,0.75-0.18C62.24,45.25,62.34,45.06,62.34,44.82z M63.55,41.06l-0.12,0.57
		c-0.3,0-0.5,0.05-0.58,0.14l0,0.04c0.09,0.15,0.14,0.3,0.14,0.46c0,0.35-0.13,0.63-0.4,0.82c-0.26,0.2-0.58,0.29-0.96,0.29
		c-0.2,0-0.36-0.02-0.48-0.05c-0.1,0.08-0.15,0.18-0.15,0.28c0,0.1,0.04,0.17,0.13,0.2c0.09,0.03,0.43,0.05,1.02,0.05
		c0.63,0,0.94,0.23,0.94,0.7c0,0.43-0.18,0.78-0.54,1.04c-0.36,0.26-0.8,0.39-1.31,0.39c-0.4,0-0.7-0.07-0.9-0.2
		c-0.2-0.13-0.3-0.33-0.3-0.59c0-0.36,0.2-0.64,0.59-0.84l0-0.05c-0.13-0.08-0.2-0.22-0.2-0.41c0-0.23,0.13-0.45,0.4-0.66l0-0.04
		c-0.11-0.06-0.21-0.16-0.29-0.29c-0.08-0.13-0.12-0.28-0.12-0.44c0-0.37,0.14-0.65,0.42-0.83s0.62-0.28,1.01-0.28
		c0.29,0,0.54,0.07,0.74,0.21h0.04c0.1-0.4,0.3-0.61,0.6-0.61C63.35,40.99,63.46,41.01,63.55,41.06z M59.16,42.79
		c0-0.25-0.05-0.46-0.16-0.63c-0.11-0.16-0.26-0.24-0.45-0.24c-0.24,0-0.44,0.12-0.59,0.37c-0.15,0.24-0.23,0.51-0.23,0.81
		c0,0.25,0.06,0.46,0.17,0.63c0.11,0.16,0.26,0.24,0.45,0.24c0.25,0,0.45-0.12,0.59-0.36C59.09,43.36,59.16,43.09,59.16,42.79z
		 M59.94,42.72c0,0.5-0.16,0.93-0.48,1.28c-0.32,0.35-0.73,0.53-1.23,0.53c-0.35,0-0.65-0.13-0.9-0.38
		c-0.25-0.26-0.37-0.59-0.37-1.01c0-0.5,0.16-0.92,0.48-1.27c0.32-0.34,0.73-0.52,1.23-0.52c0.35,0,0.65,0.12,0.9,0.37
		C59.82,41.97,59.94,42.3,59.94,42.72z M56.62,40.03c0,0.1-0.03,0.37-0.09,0.81c-0.06,0.43-0.12,0.86-0.16,1.28
		c-0.1,0.95-0.17,1.71-0.19,2.28l-0.8,0.05c0-0.03,0.03-0.3,0.1-0.79c0.07-0.49,0.13-1,0.18-1.53c0.08-0.8,0.13-1.48,0.13-2.04
		L56.62,40.03z M54.19,42.79c0-0.25-0.05-0.46-0.16-0.63c-0.11-0.16-0.26-0.24-0.45-0.24c-0.24,0-0.44,0.12-0.59,0.37
		c-0.15,0.24-0.23,0.51-0.23,0.81c0,0.25,0.06,0.46,0.17,0.63c0.11,0.16,0.26,0.24,0.45,0.24c0.25,0,0.45-0.12,0.59-0.36
		C54.12,43.36,54.19,43.09,54.19,42.79z M54.97,42.72c0,0.5-0.16,0.93-0.48,1.28c-0.32,0.35-0.73,0.53-1.23,0.53
		c-0.35,0-0.65-0.13-0.9-0.38c-0.25-0.26-0.37-0.59-0.37-1.01c0-0.5,0.16-0.92,0.48-1.27c0.32-0.34,0.73-0.52,1.23-0.52
		c0.35,0,0.65,0.12,0.9,0.37C54.85,41.97,54.97,42.3,54.97,42.72z M51.5,42.3c0,0.18-0.03,0.52-0.08,1.02
		c-0.06,0.5-0.08,0.86-0.08,1.09l-0.79,0.03c0-0.1,0.03-0.39,0.1-0.88c0.07-0.49,0.1-0.83,0.1-1.03c0-0.21-0.03-0.36-0.09-0.44
		c-0.06-0.08-0.16-0.12-0.31-0.12c-0.18,0-0.35,0.12-0.52,0.37c-0.17,0.24-0.27,0.54-0.3,0.89c-0.05,0.44-0.08,0.84-0.1,1.19
		l-0.77,0.03c0.14-1.06,0.22-1.78,0.22-2.16c0-0.22-0.02-0.48-0.05-0.79l0.76-0.08c0.01,0.17,0.02,0.38,0.02,0.61h0.04
		c0.24-0.43,0.6-0.64,1.07-0.64C51.23,41.38,51.5,41.69,51.5,42.3z M48.13,42.3c0,0.18-0.03,0.52-0.08,1.02
		c-0.06,0.5-0.08,0.86-0.08,1.09l-0.79,0.03c0-0.1,0.03-0.39,0.1-0.88c0.07-0.49,0.1-0.83,0.1-1.03c0-0.21-0.03-0.36-0.09-0.44
		c-0.06-0.08-0.16-0.12-0.31-0.12c-0.18,0-0.35,0.12-0.52,0.37c-0.17,0.24-0.27,0.54-0.3,0.89c-0.05,0.44-0.08,0.84-0.1,1.19
		l-0.78,0.03c0.04-0.27,0.13-1.04,0.27-2.32c0.08-0.78,0.12-1.46,0.12-2.04l0.85-0.05c0,0.09-0.04,0.4-0.12,0.94
		c-0.08,0.54-0.13,0.89-0.16,1.06h0.04c0.24-0.43,0.6-0.64,1.07-0.64C47.87,41.38,48.13,41.69,48.13,42.3z M44.98,41.45l-0.16,0.63
		c-0.17-0.06-0.37-0.09-0.59-0.09c-0.27,0-0.48,0.1-0.63,0.31c-0.15,0.21-0.23,0.45-0.23,0.72c0,0.57,0.22,0.86,0.65,0.86
		c0.25,0,0.52-0.09,0.82-0.27l-0.1,0.61c-0.25,0.18-0.55,0.27-0.91,0.27c-0.42,0-0.73-0.13-0.94-0.4c-0.2-0.27-0.3-0.59-0.3-0.99
		c0-0.47,0.16-0.88,0.49-1.21c0.32-0.34,0.75-0.5,1.27-0.5C44.59,41.39,44.8,41.41,44.98,41.45z M41.59,42.18
		c0-0.2-0.15-0.3-0.46-0.3c-0.17,0-0.34,0.06-0.49,0.19c-0.16,0.13-0.26,0.31-0.3,0.55C41.17,42.61,41.59,42.46,41.59,42.18z
		 M42.28,42.12c0,0.61-0.66,0.93-1.97,0.95c0,0.27,0.05,0.47,0.15,0.61c0.1,0.13,0.28,0.2,0.53,0.2c0.33,0,0.68-0.11,1.06-0.32
		l-0.1,0.61c-0.31,0.21-0.69,0.32-1.16,0.32c-0.42,0-0.73-0.13-0.93-0.38c-0.2-0.25-0.3-0.58-0.3-1c0-0.53,0.17-0.96,0.5-1.29
		c0.34-0.32,0.73-0.48,1.19-0.48c0.32,0,0.57,0.07,0.75,0.2C42.18,41.68,42.28,41.87,42.28,42.12z M39.54,40.4l-0.09,0.66
		c-0.39-0.03-0.75-0.05-1.1-0.05c-0.02,0.19-0.07,0.62-0.14,1.3c-0.08,0.79-0.14,1.49-0.16,2.1h-0.85c0.04-0.3,0.13-1,0.26-2.1
		c0.05-0.47,0.09-0.9,0.12-1.3c-0.28,0-0.65,0.02-1.14,0.05l0.1-0.67H39.54z M33.66,42.33c0-0.16-0.05-0.28-0.15-0.36
		c-0.1-0.08-0.22-0.12-0.34-0.12c-0.16,0-0.3,0.06-0.42,0.17c-0.12,0.11-0.18,0.27-0.18,0.45c0,0.16,0.05,0.28,0.15,0.36
		c0.1,0.08,0.22,0.12,0.35,0.12c0.16,0,0.3-0.06,0.42-0.17C33.6,42.67,33.66,42.52,33.66,42.33z M33.75,44.82
		c0-0.12-0.04-0.2-0.13-0.25c-0.09-0.05-0.29-0.07-0.6-0.07c-0.2,0-0.39-0.01-0.57-0.03c-0.22,0.13-0.33,0.32-0.33,0.57
		c0,0.34,0.2,0.51,0.59,0.51c0.3,0,0.55-0.06,0.75-0.18C33.65,45.25,33.75,45.06,33.75,44.82z M34.95,41.06l-0.12,0.57
		c-0.3,0-0.5,0.05-0.58,0.14l0,0.04c0.09,0.15,0.14,0.3,0.14,0.46c0,0.35-0.13,0.63-0.4,0.82c-0.26,0.2-0.58,0.29-0.96,0.29
		c-0.2,0-0.36-0.02-0.48-0.05c-0.1,0.08-0.15,0.18-0.15,0.28c0,0.1,0.04,0.17,0.13,0.2c0.09,0.03,0.43,0.05,1.02,0.05
		c0.63,0,0.94,0.23,0.94,0.7c0,0.43-0.18,0.78-0.55,1.04c-0.36,0.26-0.8,0.39-1.31,0.39c-0.4,0-0.7-0.07-0.9-0.2
		c-0.2-0.13-0.3-0.33-0.3-0.59c0-0.36,0.2-0.64,0.59-0.84l0-0.05c-0.13-0.08-0.2-0.22-0.2-0.41c0-0.23,0.13-0.45,0.4-0.66l0-0.04
		c-0.11-0.06-0.21-0.16-0.29-0.29c-0.08-0.13-0.12-0.28-0.12-0.44c0-0.37,0.14-0.65,0.42-0.83c0.28-0.19,0.62-0.28,1.01-0.28
		c0.29,0,0.54,0.07,0.74,0.21h0.04c0.1-0.4,0.3-0.61,0.6-0.61C34.76,40.99,34.86,41.01,34.95,41.06z M31.24,42.3
		c0,0.18-0.03,0.52-0.08,1.02c-0.06,0.5-0.08,0.86-0.08,1.09l-0.79,0.03c0-0.1,0.03-0.39,0.1-0.88c0.07-0.49,0.1-0.83,0.1-1.03
		c0-0.21-0.03-0.36-0.09-0.44c-0.06-0.08-0.16-0.12-0.31-0.12c-0.18,0-0.35,0.12-0.52,0.37c-0.17,0.24-0.27,0.54-0.3,0.89
		c-0.05,0.44-0.08,0.84-0.1,1.19l-0.77,0.03c0.14-1.06,0.22-1.78,0.22-2.16c0-0.22-0.02-0.48-0.05-0.79l0.76-0.08
		c0.01,0.17,0.02,0.38,0.02,0.61h0.04c0.24-0.43,0.6-0.64,1.07-0.64C30.98,41.38,31.24,41.69,31.24,42.3z M28.2,40.49
		c0,0.16-0.06,0.3-0.17,0.41c-0.11,0.11-0.25,0.17-0.41,0.17c-0.13,0-0.22-0.04-0.29-0.12c-0.07-0.08-0.1-0.17-0.1-0.29
		c0-0.16,0.06-0.3,0.17-0.41c0.11-0.11,0.25-0.17,0.41-0.17C28.07,40.1,28.2,40.23,28.2,40.49z M27.96,41.42
		c0,0.06-0.02,0.27-0.07,0.63c-0.05,0.37-0.09,0.66-0.11,0.89c-0.05,0.43-0.08,0.91-0.11,1.46l-0.79,0.03
		c0.04-0.27,0.11-0.76,0.19-1.49c0.04-0.39,0.06-0.75,0.06-1.09c0-0.14,0-0.25-0.01-0.34L27.96,41.42z M26.77,41.45l-0.24,0.72
		c-0.14-0.04-0.28-0.06-0.43-0.06c-0.37,0-0.58,0.2-0.62,0.61c-0.07,0.62-0.12,1.18-0.15,1.68l-0.77,0.03
		c0.14-1.06,0.22-1.78,0.22-2.16c0-0.22-0.02-0.48-0.05-0.79l0.76-0.08c0.01,0.14,0.02,0.27,0.02,0.41h0.05
		c0.21-0.3,0.46-0.44,0.76-0.44C26.45,41.38,26.61,41.4,26.77,41.45z M23.54,42.18c0-0.2-0.15-0.3-0.46-0.3
		c-0.17,0-0.34,0.06-0.49,0.19c-0.16,0.13-0.26,0.31-0.3,0.55C23.12,42.61,23.54,42.46,23.54,42.18z M24.23,42.12
		c0,0.61-0.66,0.93-1.97,0.95c0,0.27,0.05,0.47,0.15,0.61c0.1,0.13,0.28,0.2,0.53,0.2c0.33,0,0.68-0.11,1.06-0.32l-0.1,0.61
		c-0.31,0.21-0.69,0.32-1.16,0.32c-0.42,0-0.73-0.13-0.93-0.38c-0.2-0.25-0.3-0.58-0.3-1c0-0.53,0.17-0.96,0.5-1.29
		c0.34-0.32,0.73-0.48,1.19-0.48c0.32,0,0.57,0.07,0.75,0.2C24.13,41.68,24.23,41.87,24.23,42.12z M21.29,41.45
		c0,0.15-0.21,0.65-0.63,1.49c-0.42,0.84-0.64,1.33-0.65,1.46h-0.68c0-0.13-0.05-0.45-0.16-0.98c-0.11-0.53-0.17-0.91-0.21-1.13
		h-0.05c-0.08,0.23-0.24,0.61-0.47,1.15c-0.24,0.54-0.36,0.86-0.37,0.96h-0.68c0-0.17-0.1-0.66-0.31-1.46
		c-0.21-0.81-0.31-1.29-0.31-1.46l0.83-0.04c0,0.19,0.05,0.57,0.14,1.12c0.09,0.56,0.14,0.92,0.14,1.07h0.04
		c0.02-0.13,0.16-0.5,0.42-1.09c0.26-0.59,0.4-0.95,0.4-1.07h0.69c0,0.14,0.06,0.5,0.17,1.08c0.11,0.58,0.17,0.94,0.17,1.08h0.04
		c0.01-0.1,0.13-0.44,0.37-1.02c0.24-0.58,0.36-0.96,0.36-1.13L21.29,41.45z M15.52,42.79c0-0.25-0.05-0.46-0.16-0.63
		c-0.11-0.16-0.26-0.24-0.45-0.24c-0.24,0-0.44,0.12-0.59,0.37c-0.15,0.24-0.23,0.51-0.23,0.81c0,0.25,0.06,0.46,0.17,0.63
		c0.11,0.16,0.26,0.24,0.45,0.24c0.25,0,0.45-0.12,0.59-0.36C15.44,43.36,15.52,43.09,15.52,42.79z M16.3,42.72
		c0,0.5-0.16,0.93-0.48,1.28c-0.32,0.35-0.73,0.53-1.23,0.53c-0.35,0-0.65-0.13-0.9-0.38c-0.25-0.26-0.38-0.59-0.38-1.01
		c0-0.5,0.16-0.92,0.48-1.27c0.32-0.34,0.73-0.52,1.23-0.52c0.35,0,0.65,0.12,0.9,0.37C16.17,41.97,16.3,42.3,16.3,42.72z
		 M12.14,42.74c0-0.52-0.17-0.78-0.5-0.78c-0.2,0-0.38,0.13-0.56,0.4c-0.17,0.27-0.28,0.55-0.31,0.86l-0.06,0.57
		c0.15,0.09,0.32,0.14,0.5,0.14c0.31,0,0.55-0.12,0.7-0.36C12.06,43.34,12.14,43.06,12.14,42.74z M12.92,42.58
		c0,0.53-0.14,0.98-0.43,1.36c-0.28,0.37-0.66,0.56-1.13,0.56c-0.3,0-0.51-0.07-0.64-0.21h-0.04c-0.05,0.5-0.1,1.01-0.13,1.51
		l-0.8,0.02c0.26-1.89,0.39-3.1,0.39-3.62c0-0.2-0.02-0.42-0.05-0.69l0.76-0.09c0.02,0.16,0.03,0.36,0.03,0.61h0.04
		c0.24-0.43,0.6-0.64,1.06-0.64c0.3,0,0.54,0.11,0.7,0.32C12.84,41.93,12.92,42.22,12.92,42.58z M9.42,42.3
		c0,0.21-0.03,0.56-0.08,1.05c-0.05,0.48-0.08,0.84-0.08,1.06l-0.79,0.03c0-0.13,0.03-0.44,0.1-0.92c0.07-0.48,0.1-0.81,0.1-0.98
		c0-0.22-0.03-0.37-0.08-0.45C8.54,42,8.45,41.96,8.32,41.96c-0.19,0-0.37,0.12-0.53,0.35c-0.16,0.23-0.26,0.54-0.29,0.91
		c-0.05,0.46-0.08,0.86-0.09,1.19l-0.79,0.03c0-0.11,0.03-0.41,0.1-0.9c0.07-0.49,0.1-0.83,0.1-0.99c0-0.22-0.03-0.37-0.08-0.46
		C6.7,42,6.61,41.96,6.48,41.96c-0.19,0-0.37,0.12-0.53,0.36c-0.16,0.24-0.26,0.54-0.29,0.9c-0.05,0.46-0.08,0.86-0.1,1.19
		l-0.77,0.03C4.93,43.38,5,42.66,5,42.28c0-0.22-0.02-0.48-0.05-0.79l0.76-0.08c0.01,0.16,0.02,0.36,0.02,0.61h0.04
		c0.23-0.43,0.57-0.64,1.04-0.64c0.23,0,0.41,0.06,0.53,0.18c0.12,0.12,0.19,0.27,0.19,0.46h0.04c0.24-0.43,0.6-0.64,1.06-0.64
		c0.29,0,0.49,0.08,0.6,0.23C9.36,41.77,9.42,42,9.42,42.3z M4.44,40.4l-0.09,0.67c-0.58-0.03-1.1-0.05-1.58-0.05
		c-0.01,0.22-0.04,0.56-0.08,1.01c0.41,0,0.84-0.01,1.31-0.03l-0.07,0.64c-0.45-0.02-0.88-0.03-1.3-0.03
		c-0.04,0.42-0.08,0.81-0.1,1.17c0.53,0,1.11-0.02,1.72-0.05l-0.1,0.68H1.65c0.04-0.28,0.13-0.98,0.26-2.1
		c0.08-0.75,0.12-1.38,0.13-1.91H4.44z"/>
</g>
</svg>
